<svg xmlns="http://www.w3.org/2000/svg" width="156" height="105" fill="none" viewBox="0 0 156 105">
  <g class="Main feature - Share icon-V3">
    <path fill="url(#paint0_linear)" d="M12.55 66.836l2.528-1.246.41-2.789 1.97 2.027 2.79-.475-1.321 2.492 1.32 2.51-2.789-.484-1.97 2.018-.41-2.79-2.528-1.263z" class="Vector" opacity=".5"/>
    <path fill="url(#paint1_linear)" d="M81.584 91.508l2.352-1.171.381-2.603 1.86 1.86 2.602-.438-1.227 2.315 1.227 2.334-2.603-.438-1.859 1.86-.372-2.603-2.361-1.116z" class="Vector_2" opacity=".5"/>
    <path fill="url(#paint2_linear)" d="M78.23 14.516l2.352-1.171.38-2.603 1.86 1.86 2.603-.438-1.227 2.315 1.227 2.334-2.603-.437-1.86 1.859-.371-2.603-2.361-1.116z" class="Vector_3" opacity=".5"/>
    <path fill="url(#paint3_linear)" d="M109.529 39.153l2.575.51 1.859-1.858.307 2.612 2.333 1.218-2.38 1.106-.446 2.603-1.794-1.934-2.594.381 1.264-2.305-1.124-2.333z" class="Vector_4" opacity=".5"/>
    <path fill="url(#paint4_linear)" stroke="#526ADE" stroke-linecap="round" stroke-linejoin="round" stroke-width="2.25" d="M108.227 52.027l-13.62-13.944-10.932-11.155a2.714 2.714 0 00-1.347-.735 2.677 2.677 0 00-1.525.149 2.64 2.64 0 00-1.19.93 2.676 2.676 0 00-.446 1.468v12.913h-5.699c-4.475-.105-8.952.019-13.414.372A54.708 54.708 0 0048.72 44.32a45.96 45.96 0 00-13.795 6.795 25.1 25.1 0 00-9.678 16.008 48.342 48.342 0 00.558 18.407c1.292 5.494 3.552 10.523 5.68 15.748.24.724.63 1.389 1.144 1.952a1.791 1.791 0 002.091.391c1.014-.595.698-2.092.549-3.245-1.934-15.525.93-25.397 10.635-30.38 5.922-3.03 12.959-3.626 19.457-3.719 4.471-.065 8.599.056 13.777 0v12.653c0 .526.155 1.04.446 1.478.295.421.71.745 1.19.93a2.52 2.52 0 001.525.139 2.65 2.65 0 001.348-.734l10.932-11.23 13.647-13.945c.478-.5.742-1.167.734-1.859a2.68 2.68 0 00-.734-1.683v0z" class="Vector_5"/>
    <path fill="url(#paint5_linear)" d="M129.794 75.993a12.7 12.7 0 01-3.867 1.097 7.307 7.307 0 003.04-3.718 12.43 12.43 0 01-4.276 1.645 7.264 7.264 0 00-5.113-2.184 6.73 6.73 0 00-6.759 6.693c-.033.51.014 1.02.14 1.515a18.91 18.91 0 01-13.945-6.99 5.885 5.885 0 00-.93 3.42 6.872 6.872 0 003.041 5.578 9.639 9.639 0 01-3.04-.818v.158a6.656 6.656 0 005.382 6.563 6.92 6.92 0 01-1.794.27 3.467 3.467 0 01-1.236-.14 6.504 6.504 0 006.34 4.649 13.835 13.835 0 01-8.367 2.863 6.627 6.627 0 01-1.655-.13 19.419 19.419 0 0010.347 3.012c12.531 0 19.318-10.226 19.318-19.15v-.8a14.066 14.066 0 003.486-3.551" class="Vector_6"/>
    <path stroke="#526ADE" stroke-linecap="round" stroke-linejoin="round" stroke-width="2.25" d="M129.794 75.993a12.7 12.7 0 01-3.867 1.097 7.307 7.307 0 003.04-3.718 12.43 12.43 0 01-4.276 1.645 7.264 7.264 0 00-5.113-2.184 6.73 6.73 0 00-6.759 6.693c-.033.51.014 1.02.14 1.515a18.91 18.91 0 01-13.945-6.99 5.885 5.885 0 00-.93 3.42 6.872 6.872 0 003.041 5.578 9.639 9.639 0 01-3.04-.818v.158a6.656 6.656 0 005.382 6.563 6.92 6.92 0 01-1.794.27 3.467 3.467 0 01-1.236-.14 6.504 6.504 0 006.34 4.649 13.835 13.835 0 01-8.367 2.863 6.627 6.627 0 01-1.655-.13 19.419 19.419 0 0010.347 3.012c12.531 0 19.318-10.226 19.318-19.15v-.8a14.066 14.066 0 003.486-3.551" class="Vector_7"/>
    <path fill="url(#paint6_linear)" stroke="#526ADE" stroke-linecap="round" stroke-linejoin="round" stroke-width="2.25" d="M69.406 76.71l-20.517.232a2.285 2.285 0 00-1.608.697 2.343 2.343 0 00-.67 1.636l.233 20.573a2.284 2.284 0 00.697 1.617 2.336 2.336 0 001.627.67l10.226-.112-.112-10.477h-3.105v-3.151h3.133v-3.152c0-2.621 1.004-4.183 4.137-4.239h3.142v3.142h-1.394a1.86 1.86 0 00-1.237.558 1.86 1.86 0 00-.52 1.255v2.417l4.174-.046-.484 3.151h-3.663l.112 10.477 6.07-.065a2.368 2.368 0 001.618-.707 2.349 2.349 0 00.66-1.626l-.223-20.582a2.37 2.37 0 00-1.453-2.114 2.096 2.096 0 00-.843-.154z" class="Vector_8"/>
    <path fill="url(#paint7_linear)" fill-opacity=".5" stroke="#526ADE" stroke-linecap="round" stroke-linejoin="round" stroke-width="2.25" d="M10.932 41.337L21.41 53.013l-3.867 3.496L7.065 44.833l3.867-3.496zM29.34 33.77l5.986 6.693-3.867 3.496-5.577-6.247a4.65 4.65 0 00-2.213-1.506 2.195 2.195 0 00-1.125 0c-.353.116-.747.297-1.004.566-.482.376-.738.934-.855 1.535a3.449 3.449 0 00.158 1.682c.17.394.406.755.697 1.07l5.829 6.507L23.5 51.06l-6.74-7.632c-1.742-1.97-2.786-3.133-3.133-3.486l-.511-.558 3.867-3.495 1.515 1.7a8.598 8.598 0 01-.102-1.096c0-.405.038-.81.112-1.209.102-.498.294-.973.567-1.403a6.27 6.27 0 011.18-1.395 5.689 5.689 0 014.425-1.57c1.867.307 3.486 1.367 4.658 2.853z" class="Vector_9"/>
    <path fill="url(#paint8_linear)" fill-opacity=".5" stroke="#526ADE" stroke-linecap="round" stroke-linejoin="round" stroke-width="2.25" d="M7.586 37.422a2.529 2.529 0 00-.558-.93 2.621 2.621 0 00-.855-.64A2.518 2.518 0 005.14 35.6a2.789 2.789 0 00-1.134.196c-.346.153-.66.367-.93.632a2.966 2.966 0 00-1.069 1.99c-.028.361.02.726.14 1.068.116.347.306.664.557.93a2.632 2.632 0 001.86.93 2.88 2.88 0 002.091-.818 3.04 3.04 0 001.078-2.008 2.613 2.613 0 00-.148-1.098z" class="Vector_10"/>
    <g class="Group 397">
      <path fill="url(#paint9_linear)" fill-opacity=".75" stroke="#526ADE" stroke-linecap="round" stroke-linejoin="round" stroke-width="2.25" d="M106.694 2.263l16.473 14.807a2.712 2.712 0 01.935 1.904c.018.358-.036.718-.162 1.055a2.684 2.684 0 01-.567.912L112.02 33.103a2.827 2.827 0 01-1.937.877 2.84 2.84 0 01-2.006-.712l-16.5-14.807a2.75 2.75 0 01-.662-.86 2.7 2.7 0 01-.273-1.043 2.712 2.712 0 01.72-1.968l11.305-12.162c.252-.267.553-.484.888-.64.335-.15.697-.237 1.065-.257.368-.01.736.047 1.084.165.366.121.703.314.99.567z" class="Vector_11"/>
      <path stroke="#526ADE" stroke-linecap="round" stroke-linejoin="round" stroke-width="2.25" d="M123.091 20.799l-16.608-2.148-3.675-16.107" class="Vector_12"/>
    </g>
    <path fill="url(#paint10_linear)" d="M52.273 7.155a13.015 13.015 0 017.148-1.042 12.866 12.866 0 016.703 3.003A13.163 13.163 0 0150.85 30.497c-.177-.074-.344-.27-.539-.185l-4.816 1.255 1.283-4.714c.075-.167-.074-.297-.158-.455a13.361 13.361 0 01-1.99-5.29 13.192 13.192 0 017.624-13.944" class="Vector_13" opacity=".75"/>
    <path fill="#fff" d="M52.942 11.83a.93.93 0 01.437.205.838.838 0 01.26.4c.456.985.819 1.99 1.246 2.975.103.2.13.432.075.65a5.948 5.948 0 01-1.172 1.627.484.484 0 000 .595 9.799 9.799 0 005.532 4.797.558.558 0 00.344.056.539.539 0 00.306-.177c.456-.503.884-1.03 1.283-1.58.353-.446.65-.325 1.097-.13l2.891 1.394c.223.093.456.26.437.53a3.476 3.476 0 01-3.44 3.551c-4.75-.353-7.985-2.993-10.318-6.042a12.947 12.947 0 01-1.999-3.43 4.825 4.825 0 01.056-3.496c.697-1.469 1.394-2.036 2.984-1.943l-.019.019zm-4.434-5.67a15.878 15.878 0 111.534 26.96l-8.367 2.22 2.213-8.152a.233.233 0 00-.065-.26 15.85 15.85 0 01-1.86-9.78 16.1 16.1 0 016.582-10.95l-.037-.038zm3.719 1.023a13.191 13.191 0 00-6.034 5.494 13.013 13.013 0 00-1.738 6.21 13.154 13.154 0 002.11 7.436c.075.14.205.28.14.456l-1.274 4.713c1.599-.409 3.207-.846 4.825-1.255.195-.074.372.093.53.177a13.163 13.163 0 009.296 1.673 12.865 12.865 0 005.16-2.23 13.21 13.21 0 002.017-19.672 13.163 13.163 0 00-9.724-4.239 13.164 13.164 0 00-5.3 1.162l-.008.075z" class="Vector_14"/>
    <path stroke="#526ADE" stroke-linecap="round" stroke-linejoin="round" stroke-width="2.25" d="M48.508 6.16a15.878 15.878 0 111.534 26.96l-8.367 2.22 2.213-8.152a.233.233 0 00-.065-.26 15.85 15.85 0 01-1.86-9.78 16.1 16.1 0 016.582-10.95" class="Vector_15"/>
    <path fill="url(#paint11_linear)" fill-opacity=".65" stroke="#526ADE" stroke-linecap="round" stroke-linejoin="round" stroke-width="2.25" d="M136.999 33.742c-9.296 0-16.91 6.284-16.91 14.121 0 4.955 3.133 9.547 8.218 12.085a13.223 13.223 0 01-2.956 4.146 18.026 18.026 0 006.869-2.705 19.72 19.72 0 004.779.586c9.296 0 16.91-6.285 16.91-14.121 0-7.837-7.568-14.112-16.91-14.112z" class="Vector_16"/>
    <path fill="#657BE0" d="M130.408 51.479a5.497 5.497 0 01-1.385-.158 3.087 3.087 0 01-1.041-.456.765.765 0 01-.242-.25.818.818 0 01-.065-.336.705.705 0 01.177-.483.48.48 0 01.39-.204.674.674 0 01.232 0l.279.139c.237.134.49.237.753.307.28.066.568.098.856.093.284.014.568-.04.827-.158a.522.522 0 00.288-.484.424.424 0 00-.269-.362 3.732 3.732 0 00-1.004-.307 5.936 5.936 0 01-1.441-.465 1.738 1.738 0 01-.735-.632 1.862 1.862 0 01-.204-.93c-.004-.388.12-.767.353-1.078.237-.33.558-.59.93-.753.439-.19.915-.286 1.394-.279.408-.007.815.043 1.209.149.333.102.647.26.929.465a.749.749 0 01.233.26c.05.1.076.212.074.325a.727.727 0 01-.167.484.476.476 0 01-.391.204h-.223c-.1-.04-.197-.09-.288-.148l-.27-.14a2.034 2.034 0 00-.511-.186 2.623 2.623 0 00-.632-.074 1.418 1.418 0 00-.762.186.538.538 0 00-.289.474.418.418 0 00.103.288c.108.104.238.183.381.232.271.089.547.16.827.214.488.092.96.252 1.404.474.298.14.552.358.734.633.146.26.22.556.214.855.002.39-.118.77-.344 1.087-.25.33-.589.581-.976.725a3.72 3.72 0 01-1.348.289zm9.547-6.694a.758.758 0 01.749.513.854.854 0 01.051.324v5.066a.717.717 0 01-.452.718.708.708 0 01-.292.045.728.728 0 01-.539-.205.715.715 0 01-.205-.558v-2.695l-1.059 1.952a1.422 1.422 0 01-.335.427.718.718 0 01-.418.121.726.726 0 01-.428-.12 1.422 1.422 0 01-.335-.428l-1.05-1.86v2.678a.71.71 0 01-.753.762.736.736 0 01-.539-.204.715.715 0 01-.205-.558v-5.067a.853.853 0 01.051-.324.853.853 0 01.172-.28.795.795 0 01.586-.232.743.743 0 01.455.148c.148.106.266.246.344.41l1.72 3.225 1.701-3.226a.877.877 0 01.781-.632zm4.481 6.694a5.451 5.451 0 01-1.385-.158 3.229 3.229 0 01-1.051-.456.86.86 0 01-.232-.25.818.818 0 01-.065-.336.745.745 0 01.167-.483.491.491 0 01.391-.204.637.637 0 01.232 0l.279.139c.492.28 1.052.418 1.618.4.284.014.568-.04.827-.158a.522.522 0 00.288-.484.435.435 0 00-.269-.362 3.816 3.816 0 00-1.004-.307 6.194 6.194 0 01-1.451-.465 1.863 1.863 0 01-.734-.632 1.933 1.933 0 01-.205-.93c.003-.387.126-.764.354-1.078.25-.336.588-.596.976-.753a3.335 3.335 0 011.394-.279c.408-.007.815.043 1.209.149a3 3 0 01.929.465c.1.064.18.154.233.26.055.1.08.212.074.325a.722.722 0 01-.167.484.456.456 0 01-.381.204h-.223a1.746 1.746 0 01-.289-.148l-.269-.14a2.195 2.195 0 00-.511-.186 2.682 2.682 0 00-.633-.074 1.403 1.403 0 00-.762.186.545.545 0 00-.288.474.372.372 0 00.102.288c.109.104.239.183.381.232.271.089.548.16.828.214.487.094.959.253 1.403.474.298.137.55.356.726.633.15.259.224.555.213.855.008.39-.113.772-.344 1.087a2.101 2.101 0 01-.929.725c-.454.19-.94.288-1.432.289z" class="Vector_17"/>
    <path stroke="#526ADE" stroke-linecap="round" stroke-linejoin="round" stroke-width="2.25" d="M16.762 98.76a39.574 39.574 0 01-7.893-30.634" class="Vector_18"/>
    <path fill="#fff" d="M52.942 11.83a.93.93 0 01.437.205.837.837 0 01.26.4c.456.985.819 1.99 1.246 2.975.103.2.13.432.075.65a5.95 5.95 0 01-1.172 1.627.484.484 0 000 .595 9.799 9.799 0 005.532 4.797.558.558 0 00.344.056.539.539 0 00.306-.177c.456-.503.884-1.03 1.283-1.58.353-.446.65-.326 1.097-.13l2.891 1.394c.223.093.456.26.437.53a3.476 3.476 0 01-3.44 3.551c-4.75-.353-7.985-2.993-10.318-6.042a12.95 12.95 0 01-1.999-3.43 4.825 4.825 0 01.056-3.496c.697-1.469 1.394-2.036 2.984-1.943l-.019.019z" class="Vector_19"/>
  </g>
  <defs>
    <linearGradient id="paint0_linear" x1="16.398" x2="16.398" y1="62.801" y2="70.889" class="paint0_linear" gradientUnits="userSpaceOnUse">
      <stop stop-color="#DD876B"/>
      <stop offset="1" stop-color="#FFEE87" stop-opacity="0"/>
    </linearGradient>
    <linearGradient id="paint1_linear" x1="85.182" x2="85.182" y1="87.734" y2="95.227" class="paint1_linear" gradientUnits="userSpaceOnUse">
      <stop stop-color="#DD876B"/>
      <stop offset="1" stop-color="#FFEE87" stop-opacity="0"/>
    </linearGradient>
    <linearGradient id="paint2_linear" x1="81.827" x2="81.827" y1="10.742" y2="18.235" class="paint2_linear" gradientUnits="userSpaceOnUse">
      <stop stop-color="#DD876B"/>
      <stop offset="1" stop-color="#FFEE87" stop-opacity="0"/>
    </linearGradient>
    <linearGradient id="paint3_linear" x1="112.996" x2="112.996" y1="37.805" y2="45.344" class="paint3_linear" gradientUnits="userSpaceOnUse">
      <stop stop-color="#DD876B"/>
      <stop offset="1" stop-color="#FFEE87" stop-opacity="0"/>
    </linearGradient>
    <linearGradient id="paint4_linear" x1="66.821" x2="66.821" y1="26.147" y2="64.661" class="paint4_linear" gradientUnits="userSpaceOnUse">
      <stop stop-color="#94ECDD"/>
      <stop offset="1" stop-color="#68D3C1" stop-opacity="0"/>
    </linearGradient>
    <linearGradient id="paint5_linear" x1="113.256" x2="113.256" y1="72.851" y2="99.494" class="paint5_linear" gradientUnits="userSpaceOnUse">
      <stop stop-color="#CBD2F4"/>
      <stop offset="1" stop-color="#fff"/>
    </linearGradient>
    <linearGradient id="paint6_linear" x1="59.282" x2="59.282" y1="76.691" y2="102.135" class="paint6_linear" gradientUnits="userSpaceOnUse">
      <stop stop-color="#BEC7F1"/>
      <stop offset="1" stop-color="#BEC7F1" stop-opacity="0"/>
    </linearGradient>
    <linearGradient id="paint7_linear" x1="-5.578" x2="25.565" y1="18.179" y2="51.181" class="paint7_linear" gradientUnits="userSpaceOnUse">
      <stop stop-color="#526ADE"/>
      <stop offset="1" stop-color="#fff"/>
    </linearGradient>
    <linearGradient id="paint8_linear" x1="-3.254" x2="6.972" y1="31.194" y2="40.955" class="paint8_linear" gradientUnits="userSpaceOnUse">
      <stop stop-color="#526ADE"/>
      <stop offset="1" stop-color="#fff"/>
    </linearGradient>
    <linearGradient id="paint9_linear" x1="140.771" x2="100.652" y1="-20.89" y2="27.52" class="paint9_linear" gradientUnits="userSpaceOnUse">
      <stop stop-color="#526ADE"/>
      <stop offset="1" stop-color="#fff"/>
    </linearGradient>
    <linearGradient id="paint10_linear" x1="57.608" x2="57.72" y1="5.993" y2="52.325" class="paint10_linear" gradientUnits="userSpaceOnUse">
      <stop stop-color="#657BE0"/>
      <stop offset=".56" stop-color="#657BE0" stop-opacity="0"/>
    </linearGradient>
    <linearGradient id="paint11_linear" x1="136.618" x2="137.324" y1="33.742" y2="59.772" class="paint11_linear" gradientUnits="userSpaceOnUse">
      <stop stop-color="#657BE0"/>
      <stop offset=".7" stop-color="#657BE0" stop-opacity="0"/>
    </linearGradient>
  </defs>
</svg>
